<?xml version="1.0" standalone="no"?>
<!DOCTYPE svg PUBLIC "-//W3C//DTD SVG 20010904//EN"
 "http://www.w3.org/TR/2001/REC-SVG-20010904/DTD/svg10.dtd">
<svg version="1.0" xmlns="http://www.w3.org/2000/svg"
 width="205.000000pt" height="246.000000pt" viewBox="0 0 205.000000 246.000000"
 preserveAspectRatio="xMidYMid meet">

<g transform="translate(0.000000,246.000000) scale(0.100000,-0.100000)"
fill="#000000" stroke="none">
<path d="M1195 2451 c-76 -12 -163 -40 -224 -71 -78 -39 -667 -415 -710 -452
-181 -159 -265 -409 -216 -640 7 -37 25 -94 38 -126 l24 -60 -37 -75 c-78
-161 -88 -332 -30 -518 30 -99 87 -186 185 -285 76 -76 105 -97 185 -137 123
-60 207 -80 345 -80 204 0 259 24 690 298 342 217 407 269 474 380 81 133 115
307 89 455 -9 47 -27 115 -42 151 l-26 66 30 60 c106 212 98 468 -22 671 -18
31 -73 98 -123 147 -101 102 -196 158 -323 194 -83 23 -233 33 -307 22z m305
-312 c196 -93 296 -293 248 -498 -6 -28 -15 -51 -20 -51 -4 0 -34 17 -65 37
-32 20 -89 49 -128 64 l-69 27 -12 51 c-14 62 -33 85 -88 106 -37 14 -47 14
-82 2 -51 -17 -620 -383 -639 -410 -39 -56 -22 -140 37 -177 25 -16 45 -20 83
-17 43 3 69 15 180 87 154 99 205 120 305 127 187 13 361 -91 444 -267 29 -60
31 -73 31 -170 0 -97 -2 -110 -31 -170 -17 -36 -50 -84 -72 -106 -38 -40 -594
-401 -691 -449 -120 -61 -277 -59 -403 6 -50 25 -130 99 -169 155 -41 60 -69
153 -69 228 0 63 17 166 27 166 2 0 23 -13 46 -29 56 -38 132 -76 185 -91 37
-12 42 -17 42 -42 0 -84 61 -142 145 -135 45 4 81 23 345 191 162 104 305 200
317 215 17 19 23 39 23 74 0 40 -5 53 -33 83 -28 31 -41 37 -85 42 -51 4 -54
3 -185 -79 -72 -46 -157 -93 -187 -106 -211 -85 -464 15 -568 226 -36 72 -37
79 -37 180 0 98 2 111 32 173 17 37 51 86 75 110 35 35 600 403 688 449 59 30
108 39 205 36 91 -2 107 -5 175 -38z"/>
</g>
</svg>
